<svg width="23" height="24" viewBox="0 0 23 24" fill="none" xmlns="http://www.w3.org/2000/svg">
<path d="M19.375 11.1414H3.625C2.38236 11.1414 1.375 12.1297 1.375 13.3489V21.0751C1.375 22.2943 2.38236 23.2826 3.625 23.2826H19.375C20.6176 23.2826 21.625 22.2943 21.625 21.0751V13.3489C21.625 12.1297 20.6176 11.1414 19.375 11.1414Z" stroke="white" stroke-linecap="round" stroke-linejoin="round"/>
<path d="M5.875 11.1413V6.72628C5.875 5.26262 6.46763 3.8589 7.52252 2.82393C8.57742 1.78896 10.0082 1.20752 11.5 1.20752C12.9918 1.20752 14.4226 1.78896 15.4775 2.82393C16.5324 3.8589 17.125 5.26262 17.125 6.72628V11.1413" stroke="white" stroke-linecap="round" stroke-linejoin="round"/>
</svg>
